<?xml version="1.0" encoding="UTF-8" standalone="no"?>
<!-- Created with Inkscape (http://www.inkscape.org/) -->

<svg
   width="1320"
   height="1214.7523"
   viewBox="0 0 349.25 321.40322"
   version="1.1"
   id="svg5"
   xml:space="preserve"
   inkscape:version="1.2 (dc2aedaf03, 2022-05-15)"
   sodipodi:docname="favi.svg"
   inkscape:export-filename="favi-text.png"
   inkscape:export-xdpi="96"
   inkscape:export-ydpi="96"
   xmlns:inkscape="http://www.inkscape.org/namespaces/inkscape"
   xmlns:sodipodi="http://sodipodi.sourceforge.net/DTD/sodipodi-0.dtd"
   xmlns:xlink="http://www.w3.org/1999/xlink"
   xmlns="http://www.w3.org/2000/svg"
   xmlns:svg="http://www.w3.org/2000/svg"><sodipodi:namedview
     id="namedview7"
     pagecolor="#ffffff"
     bordercolor="#ffffff"
     borderopacity="0"
     inkscape:showpageshadow="0"
     inkscape:pageopacity="0"
     inkscape:pagecheckerboard="0"
     inkscape:deskcolor="#505050"
     inkscape:document-units="mm"
     showgrid="false"
     inkscape:zoom="0.37104026"
     inkscape:cx="-130.71358"
     inkscape:cy="831.44616"
     inkscape:window-width="1920"
     inkscape:window-height="991"
     inkscape:window-x="776"
     inkscape:window-y="2151"
     inkscape:window-maximized="1"
     inkscape:current-layer="layer1" /><defs
     id="defs2"><rect
       x="199.43927"
       y="679.17158"
       width="889.39136"
       height="350.36629"
       id="rect903" /><linearGradient
       inkscape:collect="always"
       id="linearGradient4153"><stop
         style="stop-color:#02c39a;stop-opacity:1;"
         offset="0"
         id="stop4149" /><stop
         style="stop-color:#3f8efc;stop-opacity:1;"
         offset="1"
         id="stop4151" /></linearGradient><linearGradient
       inkscape:collect="always"
       xlink:href="#linearGradient4153"
       id="linearGradient4155"
       x1="32.088837"
       y1="251.006"
       x2="252.43217"
       y2="250.29292"
       gradientUnits="userSpaceOnUse"
       gradientTransform="matrix(1.2197901,0,0,0.64124107,-30.898284,83.057103)" /></defs><g
     inkscape:label="Layer 1"
     inkscape:groupmode="layer"
     id="layer1"
     transform="translate(31.749995,-84.222309)"><rect
       style="fill:url(#linearGradient4155);fill-opacity:1;fill-rule:evenodd;stroke:#ffffff;stroke-width:56.1601;stroke-linecap:square;stroke-linejoin:round;stroke-opacity:0"
       id="rect2836"
       width="348.55505"
       height="325.75046"
       x="-30.898283"
       y="83.057114" /><g
       style="fill:#ffffff"
       id="g6461"
       transform="matrix(11.95161,0,0,11.95161,50.81597,148.35324)"><path
         d="M 8,0 A 8,8 0 1 0 8,16 8,8 0 0 0 8,0 Z M 2.04,4.326 C 2.365,5.655 4.572,6.866 5.757,7.516 6.237,7.779 6.55,7.95 6.5,8 6.42,8.08 6.338,8.158 6.258,8.234 5.842,8.63 5.471,8.983 5.5,9.5 5.535,10.134 6.118,10.324 6.714,10.517 7.291,10.705 7.882,10.897 8,11.5 8.082,11.917 7.925,12.488 7.78,13.02 7.565,13.802 7.374,14.5 8,14.5 9.5,14 11.798,11.314 12,9.5 12.138,8.257 10,7.5 8.5,7 8.022,6.84 7.745,7.081 7.51,7.284 7.338,7.434 7.188,7.563 7,7.5 6.555,7.352 4.5,5.5 5.5,5 6.28,4.61 6.452,4.829 6.727,5.182 6.805,5.281 6.89,5.39 7,5.5 7.609,5.804 7.662,5.368 7.723,4.867 7.762,4.545 7.804,4.196 8,4 8.434,3.566 9.265,3.209 10.028,2.88 10.74,2.574 11.393,2.293 11.607,2 A 7,7 0 1 1 2.04,4.327 Z"
         id="path6452"
         style="fill:#ffffff" /></g></g></svg>
